<mxfile host="app.diagrams.net" modified="2023-09-18T10:16:35.515Z" agent="Mozilla/5.0 (Windows NT 10.0; Win64; x64) AppleWebKit/537.36 (KHTML, like Gecko) Chrome/117.0.0.0 Safari/537.36" etag="WpWbgOoaIRBJ_fNVfCQd" version="21.7.5" type="device">
  <diagram name="Stránka-1" id="-WjGbvv77cyz15jGJhtR">
    <mxGraphModel dx="1290" dy="667" grid="1" gridSize="10" guides="1" tooltips="1" connect="1" arrows="1" fold="1" page="1" pageScale="1" pageWidth="827" pageHeight="1169" math="0" shadow="0">
      <root>
        <mxCell id="0" />
        <mxCell id="1" parent="0" />
        <mxCell id="uSKycUyXR5NqxYSHgU5A-8" value="Oddělení" style="swimlane;whiteSpace=wrap;html=1;" parent="1" vertex="1">
          <mxGeometry x="280" y="40" width="200" height="200" as="geometry" />
        </mxCell>
        <mxCell id="uSKycUyXR5NqxYSHgU5A-10" value="" style="shape=internalStorage;whiteSpace=wrap;html=1;backgroundOutline=1;" parent="uSKycUyXR5NqxYSHgU5A-8" vertex="1">
          <mxGeometry y="20" width="200" height="180" as="geometry" />
        </mxCell>
        <mxCell id="uSKycUyXR5NqxYSHgU5A-12" value="id_o" style="text;html=1;strokeColor=none;fillColor=none;align=center;verticalAlign=middle;whiteSpace=wrap;rounded=0;" parent="uSKycUyXR5NqxYSHgU5A-8" vertex="1">
          <mxGeometry x="80" y="10" width="60" height="40" as="geometry" />
        </mxCell>
        <mxCell id="uSKycUyXR5NqxYSHgU5A-14" value="PK" style="text;html=1;strokeColor=none;fillColor=none;align=center;verticalAlign=middle;whiteSpace=wrap;rounded=0;" parent="uSKycUyXR5NqxYSHgU5A-8" vertex="1">
          <mxGeometry x="-20" y="15" width="60" height="30" as="geometry" />
        </mxCell>
        <mxCell id="uSKycUyXR5NqxYSHgU5A-17" value="nazev&lt;br&gt;adresa&lt;br&gt;cislo_dveri&lt;br&gt;telefon" style="text;html=1;strokeColor=none;fillColor=none;align=left;verticalAlign=middle;whiteSpace=wrap;rounded=0;" parent="uSKycUyXR5NqxYSHgU5A-8" vertex="1">
          <mxGeometry x="20" y="40" width="180" height="60" as="geometry" />
        </mxCell>
        <mxCell id="uSKycUyXR5NqxYSHgU5A-9" value="Zaměstanec" style="swimlane;whiteSpace=wrap;html=1;" parent="1" vertex="1">
          <mxGeometry x="600" y="40" width="200" height="200" as="geometry" />
        </mxCell>
        <mxCell id="uSKycUyXR5NqxYSHgU5A-11" value="" style="shape=internalStorage;whiteSpace=wrap;html=1;backgroundOutline=1;" parent="uSKycUyXR5NqxYSHgU5A-9" vertex="1">
          <mxGeometry y="20" width="200" height="180" as="geometry" />
        </mxCell>
        <mxCell id="uSKycUyXR5NqxYSHgU5A-13" value="id_z" style="text;html=1;strokeColor=none;fillColor=none;align=center;verticalAlign=middle;whiteSpace=wrap;rounded=0;" parent="uSKycUyXR5NqxYSHgU5A-9" vertex="1">
          <mxGeometry x="80" y="10" width="60" height="40" as="geometry" />
        </mxCell>
        <mxCell id="uSKycUyXR5NqxYSHgU5A-15" value="PK" style="text;html=1;strokeColor=none;fillColor=none;align=center;verticalAlign=middle;whiteSpace=wrap;rounded=0;" parent="uSKycUyXR5NqxYSHgU5A-9" vertex="1">
          <mxGeometry x="-20" y="15" width="60" height="30" as="geometry" />
        </mxCell>
        <mxCell id="uSKycUyXR5NqxYSHgU5A-20" value="rodne_cislo&lt;br&gt;jmeno&lt;br&gt;prijmeni&lt;br&gt;adresa_z&lt;br&gt;telefon" style="text;html=1;strokeColor=none;fillColor=none;align=left;verticalAlign=middle;whiteSpace=wrap;rounded=0;" parent="uSKycUyXR5NqxYSHgU5A-9" vertex="1">
          <mxGeometry x="20" y="40" width="180" height="70" as="geometry" />
        </mxCell>
        <mxCell id="uSKycUyXR5NqxYSHgU5A-24" value="oddeleni" style="text;html=1;strokeColor=none;fillColor=none;align=center;verticalAlign=middle;whiteSpace=wrap;rounded=0;" parent="uSKycUyXR5NqxYSHgU5A-9" vertex="1">
          <mxGeometry x="80" y="170" width="60" height="30" as="geometry" />
        </mxCell>
        <mxCell id="uSKycUyXR5NqxYSHgU5A-27" value="" style="endArrow=none;html=1;rounded=0;exitX=1;exitY=0.861;exitDx=0;exitDy=0;exitPerimeter=0;entryX=0.003;entryY=0.854;entryDx=0;entryDy=0;entryPerimeter=0;" parent="uSKycUyXR5NqxYSHgU5A-9" source="uSKycUyXR5NqxYSHgU5A-11" target="uSKycUyXR5NqxYSHgU5A-11" edge="1">
          <mxGeometry width="50" height="50" relative="1" as="geometry">
            <mxPoint x="680" y="295" as="sourcePoint" />
            <mxPoint x="480" y="295" as="targetPoint" />
          </mxGeometry>
        </mxCell>
        <mxCell id="uSKycUyXR5NqxYSHgU5A-26" value="PK" style="text;html=1;strokeColor=none;fillColor=none;align=center;verticalAlign=middle;whiteSpace=wrap;rounded=0;" parent="uSKycUyXR5NqxYSHgU5A-9" vertex="1">
          <mxGeometry x="-20" y="170" width="60" height="30" as="geometry" />
        </mxCell>
        <mxCell id="uSKycUyXR5NqxYSHgU5A-21" style="edgeStyle=orthogonalEdgeStyle;rounded=0;orthogonalLoop=1;jettySize=auto;html=1;exitX=1;exitY=0;exitDx=0;exitDy=0;entryX=-0.003;entryY=0.929;entryDx=0;entryDy=0;entryPerimeter=0;endArrow=ERoneToMany;endFill=0;" parent="1" source="uSKycUyXR5NqxYSHgU5A-17" target="uSKycUyXR5NqxYSHgU5A-11" edge="1">
          <mxGeometry relative="1" as="geometry">
            <Array as="points">
              <mxPoint x="480" y="70" />
              <mxPoint x="540" y="70" />
              <mxPoint x="540" y="227" />
            </Array>
          </mxGeometry>
        </mxCell>
      </root>
    </mxGraphModel>
  </diagram>
</mxfile>
